<?xml version="1.0" encoding="UTF-8" standalone="no"?>
<!-- Created with Inkscape (http://www.inkscape.org/) -->

<svg
   xmlns:dc="http://purl.org/dc/elements/1.1/"
   xmlns:cc="http://creativecommons.org/ns#"
   xmlns:rdf="http://www.w3.org/1999/02/22-rdf-syntax-ns#"
   xmlns:svg="http://www.w3.org/2000/svg"
   xmlns="http://www.w3.org/2000/svg"
   xmlns:sodipodi="http://sodipodi.sourceforge.net/DTD/sodipodi-0.dtd"
   xmlns:inkscape="http://www.inkscape.org/namespaces/inkscape"
   width="256"
   height="256"
   viewBox="0 0 256 256"
   id="svg2"
   version="1.1"
   inkscape:version="0.91 r13725"
   sodipodi:docname="kaptanParalelön.svg">
  <defs
     id="defs4" />
  <sodipodi:namedview
     id="base"
     pagecolor="#ffffff"
     bordercolor="#666666"
     borderopacity="1.0"
     inkscape:pageopacity="0.0"
     inkscape:pageshadow="2"
     inkscape:zoom="0.7"
     inkscape:cx="492.36623"
     inkscape:cy="174.78796"
     inkscape:document-units="px"
     inkscape:current-layer="layer1"
     showgrid="false"
     units="px"
     inkscape:window-width="1366"
     inkscape:window-height="715"
     inkscape:window-x="0"
     inkscape:window-y="0"
     inkscape:window-maximized="1" />
  <metadata
     id="metadata7">
    <rdf:RDF>
      <cc:Work
         rdf:about="">
        <dc:format>image/svg+xml</dc:format>
        <dc:type
           rdf:resource="http://purl.org/dc/dcmitype/StillImage" />
        <dc:title></dc:title>
      </cc:Work>
    </rdf:RDF>
  </metadata>
  <g
     inkscape:label="Layer 1"
     inkscape:groupmode="layer"
     id="layer1"
     transform="translate(0,-796.36216)">
    <path
       style="fill:#b3b3b3;fill-rule:evenodd;stroke:#000000;stroke-width:5.0000186;stroke-linecap:butt;stroke-linejoin:miter;stroke-miterlimit:4;stroke-dasharray:none;stroke-opacity:1"
       d="m 178.0132,879.62868 c 0,0 31.51841,20.9046 28.83784,40.38269 -2.68057,19.4781 -44.12537,39.64846 -44.12537,39.64846"
       id="path4155"
       inkscape:connector-curvature="0"
       sodipodi:nodetypes="czc" />
    <path
       style="fill:#b3b3b3;fill-rule:evenodd;stroke:#000000;stroke-width:5.0000186;stroke-linecap:butt;stroke-linejoin:miter;stroke-miterlimit:4;stroke-dasharray:none;stroke-opacity:1"
       d="m 71.55716,876.56578 c 0,0 -30.434857,28.45784 -28.490404,45.15518 1.944472,16.69735 37.871378,37.44577 37.871378,37.44577"
       id="path4153"
       inkscape:connector-curvature="0"
       sodipodi:nodetypes="czc" />
    <path
       style="fill:#f0ad7b;fill-opacity:1;fill-rule:evenodd;stroke:#000000;stroke-width:4.14146042;stroke-linecap:butt;stroke-linejoin:miter;stroke-miterlimit:4;stroke-dasharray:none;stroke-opacity:1"
       d="m 73.332196,879.67994 0.372675,26.78331 c 0,0 -14.486418,1.64989 -14.033638,13.94726 0.614459,16.68884 19.652384,20.85176 19.652384,20.85176 0,0 2.29628,83.78083 4.816131,88.11053 2.51985,4.3297 4.941339,20.5683 39.130842,20.9131 34.18948,0.3448 40.59843,-15.4413 43.97557,-22.3806 3.37715,-6.9394 4.02487,-91.72358 4.02487,-91.72358 0,0 19.03279,-3.46024 17.96292,-17.97784 -1.06986,-14.51759 -14.16162,-13.20821 -14.16162,-13.20821 l 0.37267,-27.51709"
       id="path4151"
       inkscape:connector-curvature="0"
       sodipodi:nodetypes="ccsczzzczcc" />
    <path
       style="fill:#ffffff;fill-rule:evenodd;stroke:#000000;stroke-width:5.0000186;stroke-linecap:butt;stroke-linejoin:miter;stroke-miterlimit:4;stroke-dasharray:none;stroke-opacity:1"
       d="m 70.731357,865.67785 0,12.84947 c 0,0 19.132958,26.20399 53.506363,26.06519 34.3734,-0.1388 52.46403,-23.86249 52.46403,-23.86249 l 0.34744,-14.68505 c 0,0 12.99613,-10.53676 13.20286,-17.98822 0.20673,-7.45145 -54.37502,-48.96741 -66.70921,-49.19346 -12.3342,-0.22605 -65.167491,41.15215 -65.319452,49.19346 -0.151971,8.04133 12.507969,17.6211 12.507969,17.6211 z"
       id="path3347"
       inkscape:connector-curvature="0"
       sodipodi:nodetypes="cczcczzzc" />
    <path
       style="fill:#1f5c76;fill-opacity:1;fill-rule:evenodd;stroke:#000000;stroke-width:3.10832715;stroke-linecap:butt;stroke-linejoin:miter;stroke-miterlimit:4;stroke-dasharray:none;stroke-opacity:1"
       d="m 71.824918,857.61942 -1.309569,20.12331 c 0,0 30.127221,-8.94473 47.761561,-8.78848 17.63432,0.15624 58.37231,9.88045 58.37231,9.88045 l -0.74836,-20.49277 c 0,0 -34.15476,-16.61504 -52.38542,-17.19928 -18.23066,-0.58425 -51.690522,16.47677 -51.690522,16.47677 z"
       id="path4149"
       inkscape:connector-curvature="0"
       sodipodi:nodetypes="cczcczc" />
    <path
       style="fill:#ffffff;fill-rule:evenodd;stroke:#000000;stroke-width:1.0000037px;stroke-linecap:butt;stroke-linejoin:miter;stroke-opacity:1"
       d="m 109.51657,953.45051 9.5815,7.00893 9.33585,-1.03836 6.38767,-5.19179 -11.79263,-7.52811 z"
       id="path4161"
       inkscape:connector-curvature="0" />
    <path
       style="fill:#999999;fill-rule:evenodd;stroke:#000000;stroke-width:5.0000186;stroke-linecap:butt;stroke-linejoin:miter;stroke-miterlimit:4;stroke-dasharray:none;stroke-opacity:1"
       d="m 45.781008,960.76116 c -2.555059,-5.97363 8.820791,-20.82899 28.837846,-29.36923 20.017034,-8.54023 47.599806,9.17789 47.599806,9.17789 0,0 25.05971,-16.87313 43.43048,-13.95038 18.37076,2.92275 41.68607,24.28443 39.6086,31.57192 -2.55217,8.95274 -39.58897,6.09847 -53.50635,3.30404 -13.91738,-2.79443 -28.4904,-13.95039 -28.4904,-13.95039 0,0 -17.02658,12.55016 -30.227619,15.41885 -13.201034,2.86868 -44.90461,3.28625 -47.252363,-2.2027 z"
       id="path4157"
       inkscape:connector-curvature="0"
       sodipodi:nodetypes="szczszczs" />
    <path
       style="fill:none;fill-rule:evenodd;stroke:#000000;stroke-width:3.00001121;stroke-linecap:butt;stroke-linejoin:miter;stroke-miterlimit:4;stroke-dasharray:none;stroke-opacity:1"
       d="m 110.2536,955.52723 c 0,0 7.38613,5.08951 12.28399,5.1918 4.89788,0.10232 15.23217,-5.71098 15.23217,-5.71098"
       id="path4159"
       inkscape:connector-curvature="0"
       sodipodi:nodetypes="czc" />
    <path
       style="fill:none;fill-rule:evenodd;stroke:#000000;stroke-width:3.00001121;stroke-linecap:butt;stroke-linejoin:miter;stroke-miterlimit:4;stroke-dasharray:none;stroke-opacity:1"
       d="m 111.97335,964.35329 c 0.98273,1.03836 8.47616,3.85195 12.77537,3.63425 4.29919,-0.2177 11.79263,-4.67261 11.79263,-4.67261"
       id="path4163"
       inkscape:connector-curvature="0"
       sodipodi:nodetypes="czc" />
    <path
       style="fill:#f0ad7b;fill-opacity:1;fill-rule:evenodd;stroke:#000000;stroke-width:3.00001121;stroke-linecap:butt;stroke-linejoin:miter;stroke-miterlimit:4;stroke-dasharray:none;stroke-opacity:1"
       d="m 114.18449,921.78057 c 0,0 -11.87747,5.25441 -13.26672,11.68154 -1.389272,6.42714 3.08164,12.13268 8.35311,14.53703 5.27149,2.40435 9.69288,0.87094 14.24945,-1.81713 4.55654,-2.68809 10.56423,-14.01785 10.56423,-14.01785"
       id="path4165"
       inkscape:connector-curvature="0"
       sodipodi:nodetypes="czzzc" />
    <path
       style="fill:#000000;fill-opacity:1;stroke:#000000;stroke-width:3.00001121;stroke-linecap:round;stroke-linejoin:round;stroke-miterlimit:4;stroke-dasharray:none;stroke-opacity:1"
       id="path4167"
       sodipodi:type="arc"
       sodipodi:cx="113.3246"
       sodipodi:cy="916.45898"
       sodipodi:rx="2.3339589"
       sodipodi:ry="5.8407693"
       sodipodi:start="1.5707963"
       sodipodi:end="1.5547951"
       sodipodi:open="true"
       d="m 113.3246,922.29975 a 2.3339589,5.8407693 0 0 1 -2.33394,-5.8174 2.3339589,5.8407693 0 0 1 2.31527,-5.86395 2.3339589,5.8407693 0 0 1 2.35246,5.77049 2.3339589,5.8407693 0 0 1 -2.29645,5.91012" />
    <path
       style="fill:#000000;fill-opacity:1;stroke:#000000;stroke-width:3.00001121;stroke-linecap:round;stroke-linejoin:round;stroke-miterlimit:4;stroke-dasharray:none;stroke-opacity:1"
       id="path4167-8"
       sodipodi:type="arc"
       sodipodi:cx="133.5932"
       sodipodi:cy="917.10785"
       sodipodi:rx="2.3339589"
       sodipodi:ry="5.8407693"
       sodipodi:start="1.5707963"
       sodipodi:end="1.5547951"
       sodipodi:open="true"
       d="m 133.5932,922.94862 a 2.3339589,5.8407693 0 0 1 -2.33394,-5.81741 2.3339589,5.8407693 0 0 1 2.31527,-5.86394 2.3339589,5.8407693 0 0 1 2.35246,5.77049 2.3339589,5.8407693 0 0 1 -2.29644,5.91011" />
    <path
       style="fill:none;fill-rule:evenodd;stroke:#000000;stroke-width:2.00000739;stroke-linecap:butt;stroke-linejoin:miter;stroke-miterlimit:4;stroke-dasharray:none;stroke-opacity:1"
       d="m 131.61964,923.64223 c 0,0 4.83081,-1.06858 7.67749,-1.10325 2.84667,-0.0346 9.27441,1.10325 9.27441,1.10325"
       id="path4186"
       inkscape:connector-curvature="0"
       sodipodi:nodetypes="czc" />
    <path
       style="fill:#b3b3b3;fill-rule:evenodd;stroke:#000000;stroke-width:3.27100086;stroke-linecap:butt;stroke-linejoin:miter;stroke-miterlimit:4;stroke-dasharray:none;stroke-opacity:1"
       d="m 90.456182,909.21536 c -2.048629,-4.00003 6.558949,-6.07449 11.312068,-8.02276 4.75313,-1.94829 14.00357,-6.67473 16.22391,-2.92896 2.22035,3.74576 -6.55404,6.44977 -11.46091,8.40482 -4.90688,1.95503 -14.026449,6.54694 -16.075068,2.5469 z"
       id="path4188"
       inkscape:connector-curvature="0"
       sodipodi:nodetypes="zzzzz" />
    <path
       style="fill:#b3b3b3;fill-rule:evenodd;stroke:#000000;stroke-width:3.16193533;stroke-linecap:butt;stroke-linejoin:miter;stroke-miterlimit:4;stroke-dasharray:none;stroke-opacity:1"
       d="m 122.871,894.84771 c -2.5198,5.54758 9.71779,9.89492 16.23137,12.61856 6.51357,2.72366 17.49782,8.57597 20.35799,3.3478 2.86017,-5.22817 -9.85391,-9.52584 -16.50647,-12.36105 -6.65258,-2.8352 -17.87728,-8.46119 -20.08289,-3.60531 z"
       id="path4190"
       inkscape:connector-curvature="0"
       sodipodi:nodetypes="szzzs" />
    <path
       style="fill:none;fill-rule:evenodd;stroke:#000000;stroke-width:2.00000739;stroke-linecap:round;stroke-linejoin:round;stroke-miterlimit:4;stroke-dasharray:none;stroke-opacity:1"
       d="m 182.85201,922.42954 c 0,0 0.37586,-6.13419 -1.35124,-8.04728 -1.72711,-1.91308 -6.75619,-1.94693 -6.75619,-1.94693"
       id="path4192"
       inkscape:connector-curvature="0"
       sodipodi:nodetypes="czc" />
    <path
       style="fill:none;fill-rule:evenodd;stroke:#000000;stroke-width:2.00000739;stroke-linecap:round;stroke-linejoin:round;stroke-miterlimit:4;stroke-dasharray:none;stroke-opacity:1"
       d="m 67.392834,924.69374 c 0,0 -0.375859,-6.1342 1.351239,-8.04728 1.727109,-1.91308 6.756197,-1.94692 6.756197,-1.94692"
       id="path4192-0"
       inkscape:connector-curvature="0"
       sodipodi:nodetypes="czc" />
  </g>
</svg>
