<?xml version="1.0" encoding="UTF-8" standalone="no"?>
<!-- Created with Inkscape (http://www.inkscape.org/) -->

<svg
   xmlns:dc="http://purl.org/dc/elements/1.1/"
   xmlns:cc="http://creativecommons.org/ns#"
   xmlns:rdf="http://www.w3.org/1999/02/22-rdf-syntax-ns#"
   xmlns:svg="http://www.w3.org/2000/svg"
   xmlns="http://www.w3.org/2000/svg"
   xmlns:sodipodi="http://sodipodi.sourceforge.net/DTD/sodipodi-0.dtd"
   xmlns:inkscape="http://www.inkscape.org/namespaces/inkscape"
   width="256"
   height="256"
   viewBox="0 0 256 256"
   id="svg2"
   version="1.1"
   inkscape:version="0.91 r13725"
   sodipodi:docname="kaptanParalel.svg">
  <defs
     id="defs4" />
  <sodipodi:namedview
     id="base"
     pagecolor="#ffffff"
     bordercolor="#666666"
     borderopacity="1.0"
     inkscape:pageopacity="0.0"
     inkscape:pageshadow="2"
     inkscape:zoom="1.4"
     inkscape:cx="313.15439"
     inkscape:cy="59.605107"
     inkscape:document-units="px"
     inkscape:current-layer="layer1"
     showgrid="false"
     units="px"
     inkscape:window-width="1366"
     inkscape:window-height="715"
     inkscape:window-x="0"
     inkscape:window-y="0"
     inkscape:window-maximized="1" />
  <metadata
     id="metadata7">
    <rdf:RDF>
      <cc:Work
         rdf:about="">
        <dc:format>image/svg+xml</dc:format>
        <dc:type
           rdf:resource="http://purl.org/dc/dcmitype/StillImage" />
        <dc:title></dc:title>
      </cc:Work>
    </rdf:RDF>
  </metadata>
  <g
     inkscape:label="Layer 1"
     inkscape:groupmode="layer"
     id="layer1"
     transform="translate(0,-796.36216)">
    <path
       style="fill:#999999;fill-rule:evenodd;stroke:#000000;stroke-width:3.39643812;stroke-linecap:butt;stroke-linejoin:miter;stroke-miterlimit:4;stroke-dasharray:none;stroke-opacity:1"
       d="m 159.15635,899.01946 c 0,0 14.89007,6.16828 21.42991,4.04338 6.53984,-2.1249 11.62361,-5.20476 13.34315,-14.15183 1.71955,-8.94706 -12.9388,-32.75136 -12.9388,-32.75136"
       id="path4185"
       inkscape:connector-curvature="0"
       sodipodi:nodetypes="czzc" />
    <path
       style="fill:#f0ad7b;fill-opacity:1;fill-rule:evenodd;stroke:#000000;stroke-width:3.39643812;stroke-linecap:round;stroke-linejoin:round;stroke-miterlimit:4;stroke-dasharray:none;stroke-opacity:1"
       d="m 53.769425,929.37053 c 0,0 -10.676238,-1.02821 -10.721626,-4.71752 -0.0454,-3.68931 9.435033,-4.4316 9.435033,-4.4316 0,0 -13.802615,-3.9258 -12.865956,-8.86321 0.936658,-4.93742 14.152549,-3.28797 14.152549,-3.28797 0,0 -12.717543,-5.46798 -10.864582,-10.43571 1.852961,-4.96774 16.725736,-0.85774 16.725736,-0.85774 0,0 -7.057492,-8.5822 -4.145692,-13.72368 2.9118,-5.14148 16.58278,5.28934 16.58278,5.28934"
       id="path4171"
       inkscape:connector-curvature="0"
       sodipodi:nodetypes="czczczczc" />
    <path
       style="fill:#1a1a1a;fill-rule:evenodd;stroke:#000000;stroke-width:3.39643812;stroke-linecap:butt;stroke-linejoin:miter;stroke-miterlimit:4;stroke-dasharray:none;stroke-opacity:1"
       d="m 80.909717,1018.4117 c 0,0 -18.970726,8.884 -18.397373,13.1411 0.573352,4.2571 52.766086,2.0217 52.766086,2.0217 l -0.20217,-7.2782"
       id="path4153"
       inkscape:connector-curvature="0"
       sodipodi:nodetypes="czcc" />
    <path
       style="fill:#1a1a1a;fill-rule:evenodd;stroke:#000000;stroke-width:3.39643812;stroke-linecap:butt;stroke-linejoin:miter;stroke-miterlimit:4;stroke-dasharray:none;stroke-opacity:1"
       d="m 130.86596,1027.6748 c 0,0 -29.76451,13.5061 -27.16145,18.2982 2.60307,4.792 69.76205,0.8577 69.76205,0.8577 l 2.43023,-4.0027"
       id="path4155"
       inkscape:connector-curvature="0"
       sodipodi:nodetypes="czcc" />
    <path
       style="fill:#ffffff;fill-rule:evenodd;stroke:#000000;stroke-width:3.39643812;stroke-linecap:round;stroke-linejoin:round;stroke-miterlimit:4;stroke-dasharray:none;stroke-opacity:1"
       d="m 131.20493,1012.3467 -2.83037,14.5561 50.74439,15.7693 -9.50193,-31.5385"
       id="path4151"
       inkscape:connector-curvature="0" />
    <path
       style="fill:#ffffff;fill-rule:evenodd;stroke:#000000;stroke-width:3.39643812;stroke-linecap:butt;stroke-linejoin:miter;stroke-miterlimit:4;stroke-dasharray:none;stroke-opacity:1"
       d="m 85.974089,1006.3652 -5.054217,11.928 34.368708,7.4803 4.04338,-12.7366"
       id="path4149"
       inkscape:connector-curvature="0" />
    <path
       style="fill:#ffffff;fill-rule:evenodd;stroke:#000000;stroke-width:3.39643812;stroke-linecap:butt;stroke-linejoin:miter;stroke-miterlimit:4;stroke-dasharray:none;stroke-opacity:1"
       d="m 88.189778,940.76438 c 0,0 -28.155985,53.67376 -20.621225,59.03333 20.897049,14.86449 93.299447,16.00849 108.766867,7.27809 7.40552,-4.1799 -21.4299,-67.1201 -21.4299,-67.1201"
       id="path3347"
       inkscape:connector-curvature="0"
       sodipodi:nodetypes="cssc" />
    <path
       style="fill:#ffffff;fill-rule:evenodd;stroke:#000000;stroke-width:3.39643812;stroke-linecap:butt;stroke-linejoin:miter;stroke-miterlimit:4;stroke-dasharray:none;stroke-opacity:1"
       d="M 84.675121,949.10849 C 71.384508,944.62642 61.73294,940.95304 52.081373,930.81024 l 21.443253,-43.45833 c 11.875431,5.87413 21.729165,12.96126 32.593744,19.44189"
       id="path4157"
       inkscape:connector-curvature="0"
       sodipodi:nodetypes="cccc" />
    <path
       style="fill:#ffffff;fill-rule:evenodd;stroke:#000000;stroke-width:3.39643812;stroke-linecap:butt;stroke-linejoin:miter;stroke-miterlimit:4;stroke-dasharray:none;stroke-opacity:1"
       d="m 152.59511,906.87754 c 0,0 10.03177,-2.1218 19.7278,5.14638 9.69602,7.26819 26.87555,44.88787 26.87555,44.88787 l -45.1738,16.58278 -13.72368,-26.01781"
       id="path4159"
       inkscape:connector-curvature="0"
       sodipodi:nodetypes="czccc" />
    <path
       style="fill:none;fill-rule:evenodd;stroke:#000000;stroke-width:2.264292;stroke-linecap:butt;stroke-linejoin:miter;stroke-miterlimit:4;stroke-dasharray:none;stroke-opacity:1"
       d="m 79.402151,892.01022 -6.861847,14.86732"
       id="path4161"
       inkscape:connector-curvature="0" />
    <path
       style="fill:none;fill-rule:evenodd;stroke:#000000;stroke-width:2.264292;stroke-linecap:butt;stroke-linejoin:miter;stroke-miterlimit:4;stroke-dasharray:none;stroke-opacity:1"
       d="m 85.692173,895.44113 -6.861846,15.43914"
       id="path4163"
       inkscape:connector-curvature="0" />
    <path
       style="fill:none;fill-rule:evenodd;stroke:#000000;stroke-width:2.264292;stroke-linecap:butt;stroke-linejoin:miter;stroke-miterlimit:4;stroke-dasharray:none;stroke-opacity:1"
       d="M 151.45148,968.63411 196.62527,951.4795"
       id="path4165"
       inkscape:connector-curvature="0" />
    <path
       style="fill:none;fill-rule:evenodd;stroke:#000000;stroke-width:2.264292;stroke-linecap:butt;stroke-linejoin:miter;stroke-miterlimit:4;stroke-dasharray:none;stroke-opacity:1"
       d="M 149.40106,963.01997 193.4312,945.39165"
       id="path4167"
       inkscape:connector-curvature="0"
       sodipodi:nodetypes="cc" />
    <path
       style="fill:none;fill-rule:evenodd;stroke:#000000;stroke-width:3.39643812;stroke-linecap:butt;stroke-linejoin:miter;stroke-miterlimit:4;stroke-dasharray:none;stroke-opacity:1"
       d="m 163.4597,941.18675 c 0,0 -7.6454,-14.38093 -6.70873,-16.31125 0.93667,-1.93032 2.02373,-1.61708 2.70303,-0.48509 1.98589,3.30928 2.49972,4.30047 3.13184,7.39737 0.63211,3.09692 -2.3668,2.42166 -2.3668,2.42166"
       id="path4169"
       inkscape:connector-curvature="0"
       sodipodi:nodetypes="czszc" />
    <path
       style="fill:#f0ad7b;fill-opacity:1;fill-rule:evenodd;stroke:#000000;stroke-width:3.39643812;stroke-linecap:round;stroke-linejoin:round;stroke-miterlimit:4;stroke-dasharray:none;stroke-opacity:1"
       d="m 197.91186,958.91316 -0.71477,7.71958 c 0,0 7.07187,16.48009 2.71615,18.87006 -4.35573,2.38997 -8.14844,-7.0048 -8.14844,-7.0048 0,0 1.30015,15.56012 -3.71683,16.5828 -5.01698,1.02268 -8.00548,-11.1505 -8.00548,-11.1505 0,0 -0.23966,9.50111 -4.71752,9.86393 -4.47785,0.36282 -9.14912,-13.1519 -9.14912,-13.1519 0,0 -3.55224,10.08045 -8.00548,8.86321 -4.45324,-1.21724 -3.14501,-15.43914 -3.14501,-15.43914"
       id="path4173"
       inkscape:connector-curvature="0"
       sodipodi:nodetypes="cczczczczc" />
    <path
       style="fill:#f0ad7b;fill-opacity:1;fill-rule:evenodd;stroke:#000000;stroke-width:3.39643812;stroke-linecap:butt;stroke-linejoin:miter;stroke-miterlimit:4;stroke-dasharray:none;stroke-opacity:1"
       d="m 89.123096,948.33449 c -0.887138,14.86418 40.934864,18.10764 45.173774,13.43777 15.17356,-24.25609 16.01097,-47.27046 28.3051,-72.62114 0,0 11.94027,6.45619 16.01096,3.43091 4.07069,-3.02527 3.27569,-10.58642 1.14365,-14.00959 -2.13205,-3.42317 -9.43504,-3.71683 -9.43504,-3.71683 l 14.86732,-18.01233 -47.17515,-29.16282 -14.86733,24.58826 c 0,0 -12.87999,-7.7374 -16.86869,1.71546 -3.9887,9.45287 13.15186,15.15324 13.15186,15.15324 l -18.87006,9.72093 0.57183,10.00686 c -4.00274,19.82309 -8.863213,37.64481 -12.008224,59.46928 z"
       id="path4175"
       inkscape:connector-curvature="0"
       sodipodi:nodetypes="ccczzcccczcccc" />
    <path
       style="fill:#ffffff;fill-rule:evenodd;stroke:#000000;stroke-width:3.39643812;stroke-linecap:butt;stroke-linejoin:miter;stroke-miterlimit:4;stroke-dasharray:none;stroke-opacity:1"
       d="m 148.8386,858.26755 c -20.32885,-14.74755 -27.98653,-19.85744 -25.81914,-26.0332 2.1674,-6.17576 17.51339,-9.0976 17.51339,-9.0976 0,0 -2.57368,-7.50615 0.6065,-11.11929 3.18017,-3.61316 21.53045,-14.21274 35.17739,-10.31062 13.64695,3.90213 27.26705,47.82181 26.68629,55.19212 -0.58075,7.37032 -17.79087,3.03254 -17.79087,3.03254 0,0 -16.04471,13.08361 -36.37356,-1.66395 z"
       id="path4177"
       inkscape:connector-curvature="0"
       sodipodi:nodetypes="zzczzzcz" />
    <path
       style="fill:#ffffff;fill-rule:evenodd;stroke:#000000;stroke-width:1.132146px;stroke-linecap:butt;stroke-linejoin:miter;stroke-opacity:1"
       d="m 123.7768,883.8568 -10.51278,-1.21302 -8.69327,-6.87374 12.93881,-3.63904 z"
       id="path4183"
       inkscape:connector-curvature="0" />
    <path
       style="fill:none;fill-rule:evenodd;stroke:#000000;stroke-width:3.39643812;stroke-linecap:butt;stroke-linejoin:miter;stroke-miterlimit:4;stroke-dasharray:none;stroke-opacity:1"
       d="m 121.35077,893.76307 c -8.08675,-2.35863 -12.9388,-4.31294 -19.40821,-9.50194 l 0.80868,-7.48025 c 6.33463,4.04338 11.86057,6.26725 19.61038,7.8846"
       id="path4181"
       inkscape:connector-curvature="0"
       sodipodi:nodetypes="cccc" />
    <path
       style="fill:#b3b3b3;fill-rule:evenodd;stroke:#000000;stroke-width:3.39643812;stroke-linecap:butt;stroke-linejoin:miter;stroke-miterlimit:4;stroke-dasharray:none;stroke-opacity:1"
       d="m 88.551272,868.27968 c 0.67631,-3.37742 16.868688,-10.57867 16.868688,-10.57867 4.21718,9.67329 8.86321,8.41052 13.72368,11.43639 0,0 21.89207,1.95683 31.59306,10.14982 9.70098,8.19298 22.0477,35.16136 19.22746,37.74012 -2.82024,2.57875 -27.88082,-12.05403 -37.88308,-18.65563 -10.00226,-6.6016 -16.65426,-22.65837 -16.65426,-22.65837 0,0 -13.51842,4.69787 -18.29824,2.07284 -4.77983,-2.62502 -9.253618,-6.12908 -8.577308,-9.5065 z"
       id="path4179"
       inkscape:connector-curvature="0"
       sodipodi:nodetypes="zcczzzczz" />
    <path
       style="fill:none;fill-rule:evenodd;stroke:#000000;stroke-width:3.39643812;stroke-linecap:butt;stroke-linejoin:miter;stroke-miterlimit:4;stroke-dasharray:none;stroke-opacity:1"
       d="m 122.00274,851.411 9.43503,7.71956"
       id="path4187"
       inkscape:connector-curvature="0" />
    <path
       style="fill:#000000;fill-opacity:1;stroke:none;stroke-width:3;stroke-linecap:round;stroke-linejoin:round;stroke-miterlimit:4;stroke-dasharray:none;stroke-opacity:1"
       id="path4191"
       sodipodi:type="arc"
       sodipodi:cx="379.61008"
       sodipodi:cy="774.57739"
       sodipodi:rx="2.5271118"
       sodipodi:ry="4.0433788"
       sodipodi:start="1.5707963"
       sodipodi:end="1.5547951"
       sodipodi:open="true"
       d="m 379.61008,778.62077 a 2.5271118,4.0433788 0 0 1 -2.52709,-4.0272 2.5271118,4.0433788 0 0 1 2.50687,-4.05943 2.5271118,4.0433788 0 0 1 2.54715,3.99473 2.5271118,4.0433788 0 0 1 -2.4865,4.09138"
       transform="matrix(0.95407752,0.29955981,-0.29955981,0.95407752,0,0)" />
    <path
       style="fill:#000000;fill-opacity:1;stroke:none;stroke-width:3;stroke-linecap:round;stroke-linejoin:round;stroke-miterlimit:4;stroke-dasharray:none;stroke-opacity:1"
       id="path4191-9"
       sodipodi:type="arc"
       sodipodi:cx="390.52087"
       sodipodi:cy="777.74182"
       sodipodi:rx="2.5271118"
       sodipodi:ry="4.0433788"
       sodipodi:start="1.5707963"
       sodipodi:end="1.5547951"
       sodipodi:open="true"
       d="m 390.52087,781.7852 a 2.5271118,4.0433788 0 0 1 -2.52709,-4.0272 2.5271118,4.0433788 0 0 1 2.50688,-4.05943 2.5271118,4.0433788 0 0 1 2.54714,3.99473 2.5271118,4.0433788 0 0 1 -2.48649,4.09138"
       transform="matrix(0.95407752,0.29955981,-0.29955981,0.95407752,0,0)" />
    <path
       style="fill:none;fill-rule:evenodd;stroke:#000000;stroke-width:2.264292;stroke-linecap:butt;stroke-linejoin:miter;stroke-miterlimit:4;stroke-dasharray:none;stroke-opacity:1"
       d="m 132.70461,862.22472 c 0,0 5.15822,-0.95969 7.68243,0 2.52421,0.9597 6.36832,5.66073 6.36832,5.66073"
       id="path4208"
       inkscape:connector-curvature="0"
       sodipodi:nodetypes="czc" />
    <path
       style="fill:#b3b3b3;fill-rule:evenodd;stroke:#000000;stroke-width:2.264292;stroke-linecap:butt;stroke-linejoin:miter;stroke-miterlimit:4;stroke-dasharray:none;stroke-opacity:1"
       d="m 119.56459,838.85622 c -1.13893,2.83811 3.88252,4.41894 7.14774,5.86117 3.26521,1.44222 8.63949,3.78985 9.8639,1.14362 1.22442,-2.64622 -4.3658,-3.89897 -7.71957,-5.14637 -3.35377,-1.2474 -8.15315,-4.69653 -9.29207,-1.85842 z"
       id="path4210"
       inkscape:connector-curvature="0"
       sodipodi:nodetypes="zzzzz" />
    <path
       style="fill:#b3b3b3;fill-rule:evenodd;stroke:#000000;stroke-width:2.264292;stroke-linecap:butt;stroke-linejoin:miter;stroke-miterlimit:4;stroke-dasharray:none;stroke-opacity:1"
       d="m 138.80438,848.54066 c -2.02472,2.70345 4.8873,7.14408 8.08676,9.90627 3.19944,2.7622 8.03334,8.64922 10.51278,6.16616 2.47943,-2.48306 -3.36087,-8.05401 -6.67158,-10.91713 -3.31072,-2.8631 -9.90324,-7.85875 -11.92796,-5.1553 z"
       id="path4212"
       inkscape:connector-curvature="0"
       sodipodi:nodetypes="zzzzz" />
    <path
       style="fill:#1f5c76;fill-opacity:1;fill-rule:evenodd;stroke:#000000;stroke-width:2.264292;stroke-linecap:butt;stroke-linejoin:miter;stroke-miterlimit:4;stroke-dasharray:none;stroke-opacity:1"
       d="m 136.58415,825.67909 3.28795,-5.00343 c 0,0 -1.02919,-5.8148 14.29551,-2.8591 15.32469,2.95569 33.02262,34.3092 33.02262,34.3092 l -5.86116,8.14845 c 0,0 -20.92628,-25.82667 -33.02261,-30.16352 -12.09634,-4.33686 -11.72231,-4.4316 -11.72231,-4.4316 z"
       id="path4214"
       inkscape:connector-curvature="0"
       sodipodi:nodetypes="cczcczc" />
    <path
       style="fill:none;fill-rule:evenodd;stroke:#000000;stroke-width:1.69821906;stroke-linecap:butt;stroke-linejoin:miter;stroke-miterlimit:4;stroke-dasharray:none;stroke-opacity:1"
       d="m 167.84963,880.82428 c 0,0 3.88619,-1.16058 5.66073,0 1.77453,1.16057 2.83036,6.4694 2.83036,6.4694"
       id="path4225"
       inkscape:connector-curvature="0"
       sodipodi:nodetypes="czc" />
    <path
       style="fill:none;fill-rule:evenodd;stroke:#000000;stroke-width:1.69821906;stroke-linecap:butt;stroke-linejoin:miter;stroke-miterlimit:4;stroke-dasharray:none;stroke-opacity:1"
       d="m 168.16503,885.60746 c 0,0 3.36788,1.06554 4.64988,0.40434 1.28201,-0.66119 2.02169,-3.43688 2.02169,-3.43688"
       id="path4227"
       inkscape:connector-curvature="0"
       sodipodi:nodetypes="czc" />
    <path
       style="fill:none;fill-rule:evenodd;stroke:#000000;stroke-width:2.264292;stroke-linecap:butt;stroke-linejoin:miter;stroke-miterlimit:4;stroke-dasharray:none;stroke-opacity:1"
       d="m 89.694909,950.04996 -0.285901,18.29824 12.294132,-7.14776"
       id="path4229"
       inkscape:connector-curvature="0" />
    <path
       style="fill:none;fill-rule:evenodd;stroke:#000000;stroke-width:2.264292;stroke-linecap:butt;stroke-linejoin:miter;stroke-miterlimit:4;stroke-dasharray:none;stroke-opacity:1"
       d="m 114.11568,964.09423 10.00685,13.72368 11.15049,-17.72642"
       id="path4231"
       inkscape:connector-curvature="0" />
    <path
       style="fill:#bdb778;fill-opacity:1;stroke:#000000;stroke-width:2.264292;stroke-linecap:round;stroke-linejoin:round;stroke-miterlimit:4;stroke-dasharray:none;stroke-opacity:1"
       id="path4233"
       sodipodi:type="arc"
       sodipodi:cx="103.92719"
       sodipodi:cy="978.99017"
       sodipodi:rx="6.334867"
       sodipodi:ry="6.3348188"
       sodipodi:start="1.5707963"
       sodipodi:end="1.5547951"
       sodipodi:open="true"
       d="m 103.92719,985.32499 a 6.334867,6.3348188 0 0 1 -6.334814,-6.30948 6.334867,6.3348188 0 0 1 6.284134,-6.35995 6.334867,6.3348188 0 0 1 6.38509,6.25859 6.334867,6.3348188 0 0 1 -6.23305,6.41003" />
    <path
       style="fill:#bdb778;fill-opacity:1;stroke:#000000;stroke-width:2.264292;stroke-linecap:round;stroke-linejoin:round;stroke-miterlimit:4;stroke-dasharray:none;stroke-opacity:1"
       id="path4233-2"
       sodipodi:type="arc"
       sodipodi:cx="101.70314"
       sodipodi:cy="996.08142"
       sodipodi:rx="6.334867"
       sodipodi:ry="6.3348188"
       sodipodi:start="1.5707963"
       sodipodi:end="1.5547951"
       sodipodi:open="true"
       d="m 101.70314,1002.4162 a 6.334867,6.3348188 0 0 1 -6.334816,-6.30944 6.334867,6.3348188 0 0 1 6.284136,-6.35996 6.334867,6.3348188 0 0 1 6.38509,6.2586 6.334867,6.3348188 0 0 1 -6.23305,6.41" />
  </g>
</svg>
